<svg id="svg" version="1.1" xmlns="http://www.w3.org/2000/svg" xmlns:xlink="http://www.w3.org/1999/xlink" width="400" height="400" viewBox="0, 0, 400,400"><g id="svgg"><path id="path0" d="M209.262 30.278 C 209.264 30.634,208.910 34.796,208.477 39.525 C 208.044 44.255,207.775 48.347,207.879 48.619 C 208.059 49.086,223.484 50.749,223.838 50.339 C 223.911 50.254,224.068 49.321,224.187 48.266 C 224.439 46.029,224.621 46.122,219.259 45.741 C 214.025 45.368,214.074 45.390,214.074 43.477 C 214.074 41.358,214.258 41.299,219.363 41.781 C 221.642 41.996,223.541 42.138,223.581 42.098 C 223.622 42.057,223.768 41.175,223.906 40.137 L 224.156 38.251 221.059 38.002 C 214.766 37.496,214.815 37.512,214.815 35.946 C 214.815 34.097,214.526 34.167,220.076 34.677 C 222.781 34.926,225.014 35.100,225.038 35.065 C 225.062 35.029,225.179 34.134,225.299 33.075 L 225.516 31.151 223.962 30.947 C 222.305 30.729,210.378 29.630,209.676 29.630 C 209.447 29.630,209.261 29.921,209.262 30.278 M182.348 30.355 C 174.096 32.321,175.561 40.045,184.502 41.716 C 187.829 42.338,188.889 42.961,188.889 44.296 C 188.889 46.973,183.959 46.880,182.934 44.183 C 182.661 43.466,182.394 43.302,181.754 43.459 C 181.298 43.571,180.047 43.777,178.972 43.917 C 176.851 44.194,176.793 44.355,177.975 46.667 C 180.601 51.803,191.337 51.242,194.023 45.828 C 196.272 41.295,193.616 37.992,186.946 37.025 C 182.808 36.426,181.628 35.557,183.037 34.148 C 184.120 33.065,187.778 34.100,187.778 35.490 C 187.778 35.830,192.620 35.245,193.049 34.853 C 193.686 34.272,191.782 31.514,190.224 30.760 C 188.583 29.965,184.800 29.770,182.348 30.355 M238.789 43.427 C 237.410 48.366,236.285 52.580,236.289 52.790 C 236.295 53.128,249.537 57.064,250.604 57.045 C 250.835 57.040,251.207 56.308,251.431 55.418 C 251.655 54.528,251.932 53.556,252.045 53.260 C 252.205 52.843,251.244 52.441,247.793 51.486 C 244.914 50.688,243.333 50.074,243.333 49.752 C 243.333 49.365,245.817 40.168,246.886 36.595 C 247.053 36.037,243.146 34.440,241.627 34.446 C 241.445 34.446,240.168 38.488,238.789 43.427 M138.148 41.144 C 136.824 41.721,135.609 42.243,135.447 42.305 C 135.285 42.367,136.333 45.197,137.775 48.593 C 140.985 56.155,140.757 58.148,136.681 58.148 C 134.737 58.148,134.129 57.326,131.346 50.926 C 129.815 47.404,128.754 45.410,128.447 45.478 C 128.181 45.537,126.944 46.011,125.698 46.530 L 123.434 47.476 126.056 53.590 C 130.209 63.274,132.546 64.771,139.468 62.182 C 143.762 60.575,145.926 57.979,145.926 54.435 C 145.926 52.933,141.442 40.887,140.605 40.141 C 140.578 40.116,139.472 40.568,138.148 41.144 M267.194 49.734 C 262.902 58.544,263.011 61.271,267.786 64.535 C 272.507 67.762,277.136 67.982,279.877 65.108 C 280.875 64.060,286.667 53.142,286.667 52.306 C 286.667 52.044,282.134 49.630,281.642 49.630 C 281.534 49.630,280.191 52.217,278.658 55.380 C 275.108 62.703,273.278 63.908,270.578 60.700 C 269.244 59.114,269.293 58.906,272.554 52.323 L 275.478 46.420 272.791 45.091 L 270.104 43.761 267.194 49.734 M105.532 58.436 C 103.513 59.466,94.761 65.588,94.887 65.883 C 95.247 66.725,105.656 81.481,105.890 81.481 C 106.098 81.481,109.916 78.973,110.639 78.360 C 110.686 78.321,109.704 76.823,108.457 75.032 C 105.300 70.494,106.384 69.845,112.222 72.778 C 116.277 74.814,115.829 74.824,118.939 72.633 L 121.511 70.821 118.811 69.366 C 115.708 67.694,113.977 67.037,112.680 67.037 C 111.806 67.037,111.791 66.999,112.338 66.165 C 115.300 61.644,110.324 55.993,105.532 58.436 M295.185 68.580 C 292.028 72.675,289.398 76.142,289.342 76.284 C 289.249 76.517,293.425 80.000,293.798 80.000 C 293.884 80.000,294.988 78.667,296.251 77.037 C 297.514 75.407,298.674 74.074,298.829 74.074 C 300.254 74.074,300.338 77.362,299.064 83.214 C 298.922 83.864,299.409 84.425,301.574 86.111 L 304.259 88.201 304.967 84.406 C 305.505 81.518,305.586 80.280,305.305 79.227 L 304.935 77.844 306.882 78.045 C 311.787 78.551,314.648 73.107,311.413 69.423 C 310.455 68.332,301.400 61.086,301.042 61.123 C 300.978 61.130,298.343 64.486,295.185 68.580 M107.196 63.545 C 108.413 64.763,106.178 68.572,104.285 68.504 C 103.895 68.491,101.695 65.578,101.921 65.375 C 103.927 63.568,106.371 62.720,107.196 63.545 M305.833 69.776 C 308.771 72.486,305.976 74.630,302.648 72.220 C 300.809 70.887,300.829 71.049,302.281 69.241 C 303.569 67.639,303.508 67.630,305.833 69.776 M79.600 78.739 L 77.593 80.776 82.500 85.598 C 88.108 91.110,88.446 91.867,86.268 94.046 C 84.084 96.230,83.171 95.812,77.107 89.856 L 72.917 85.741 70.842 87.954 L 68.766 90.167 73.364 94.560 C 81.145 101.995,84.148 102.502,89.386 97.265 C 95.224 91.427,94.189 87.857,84.054 78.871 L 81.607 76.702 79.600 78.739 M322.122 87.377 C 313.629 94.802,312.992 97.850,318.651 103.989 C 323.621 109.382,327.294 108.260,338.483 97.932 C 339.074 97.387,338.814 96.902,336.534 94.290 L 335.267 92.840 331.430 96.152 C 325.295 101.446,325.245 101.481,323.844 101.481 C 321.567 101.481,319.727 98.746,320.736 96.861 C 320.989 96.389,323.348 94.139,325.979 91.862 L 330.763 87.722 329.282 85.953 C 326.780 82.964,327.283 82.864,322.122 87.377 M147.963 99.867 C 144.668 101.272,140.170 104.406,137.096 107.439 C 121.983 122.351,121.035 142.492,134.210 168.792 C 137.987 176.331,137.791 177.337,133.012 174.955 C 124.487 170.707,116.717 146.222,117.923 127.407 C 118.461 119.020,113.430 122.921,109.863 133.657 C 103.526 152.736,106.484 173.202,117.407 185.850 C 118.731 187.384,120.389 189.319,121.092 190.152 C 121.794 190.985,123.108 192.168,124.012 192.781 C 128.129 195.574,126.063 196.758,121.137 194.429 C 108.454 188.428,102.620 179.056,99.823 160.185 C 98.371 150.387,97.479 149.058,95.286 153.426 C 90.132 163.694,88.657 178.097,91.751 187.963 C 95.828 200.967,105.158 208.870,124.537 215.734 C 127.832 216.901,126.638 218.948,122.627 219.008 C 113.193 219.149,105.535 216.114,94.599 207.900 C 87.940 202.897,88.519 203.003,88.519 206.793 C 88.519 222.643,102.266 233.965,126.852 238.363 L 130.556 239.025 128.908 239.510 C 123.300 241.162,118.328 240.581,106.013 236.834 C 100.974 235.302,96.577 233.964,96.240 233.862 C 95.168 233.537,96.158 236.598,97.863 238.884 C 103.137 245.950,111.987 251.929,121.646 254.951 C 128.865 257.210,129.731 257.385,135.513 257.751 C 141.966 258.160,142.079 258.192,139.916 259.009 C 132.254 261.904,124.531 261.792,114.365 258.640 C 108.414 256.794,107.140 257.790,110.648 261.545 C 116.394 267.696,127.404 271.568,143.148 272.976 C 145.796 273.213,148.021 273.462,148.092 273.530 C 148.309 273.737,144.364 274.829,142.593 275.053 C 141.676 275.169,139.349 275.681,137.422 276.192 C 135.495 276.703,132.042 277.311,129.749 277.542 C 124.563 278.066,124.615 278.513,130.043 280.038 C 136.381 281.819,140.817 282.591,146.955 282.982 C 152.416 283.330,153.947 283.260,159.444 282.408 L 160.556 282.236 159.630 283.026 C 159.120 283.461,157.289 284.474,155.560 285.279 C 153.831 286.084,151.967 287.062,151.419 287.452 C 149.998 288.464,146.426 289.746,140.113 291.511 C 137.097 292.354,134.345 293.194,133.997 293.378 C 132.695 294.067,128.931 302.012,128.898 304.140 C 128.827 308.793,147.537 303.964,160.000 296.113 C 172.858 288.014,184.868 286.311,196.321 290.965 C 199.166 292.121,200.307 292.085,204.488 290.706 C 216.906 286.611,225.788 287.751,238.009 295.008 C 249.892 302.066,258.316 305.181,267.229 305.813 C 270.890 306.073,271.324 305.743,270.994 302.957 C 270.280 296.926,266.091 293.033,258.174 291.043 C 255.756 290.435,252.470 289.268,250.513 288.322 C 248.629 287.412,246.964 286.667,246.814 286.667 C 246.406 286.667,239.630 282.809,239.630 282.577 C 239.630 282.466,241.838 282.592,244.537 282.857 C 252.607 283.648,260.504 282.789,268.056 280.298 C 270.551 279.475,272.592 278.696,272.592 278.568 C 272.592 278.439,269.717 277.701,266.203 276.929 C 254.833 274.430,251.425 273.636,251.547 273.517 C 251.613 273.452,253.874 273.212,256.573 272.984 C 274.003 271.508,286.160 266.505,291.177 258.742 C 293.026 255.882,293.224 255.900,286.147 258.283 C 275.761 261.780,269.190 262.011,260.420 259.189 C 257.285 258.179,258.001 257.791,263.007 257.783 C 277.152 257.763,293.781 249.646,301.611 238.941 C 305.067 234.215,302.863 233.306,295.185 236.288 C 285.683 239.979,278.033 241.111,271.558 239.786 C 267.526 238.961,267.612 238.727,272.133 238.224 C 294.430 235.745,311.229 222.666,311.245 207.774 C 311.250 203.153,311.317 203.152,305.181 207.837 C 298.772 212.730,295.395 214.769,291.138 216.317 C 284.213 218.834,276.452 219.812,274.855 218.369 C 273.215 216.886,273.863 216.321,280.046 213.843 C 289.971 209.865,294.187 207.340,299.101 202.431 C 309.231 192.309,312.376 177.217,307.567 161.802 C 303.311 148.159,301.770 147.591,299.990 159.009 C 297.652 174.008,295.113 180.324,288.766 186.935 C 283.684 192.229,275.500 196.858,273.955 195.313 C 273.822 195.180,275.586 193.132,277.875 190.762 C 289.491 178.736,293.282 168.851,292.859 151.692 C 292.515 137.788,289.299 128.624,281.866 120.370 L 280.699 119.074 280.922 120.465 C 282.420 129.794,281.351 143.661,278.117 156.852 C 275.820 166.222,268.347 176.250,263.633 176.288 C 262.034 176.301,262.115 175.894,264.635 171.255 C 265.951 168.833,267.029 166.665,267.032 166.436 C 267.035 166.208,267.863 164.291,268.872 162.177 C 274.543 150.296,276.439 135.112,273.511 125.010 C 270.332 114.041,261.868 104.052,252.290 99.965 C 247.457 97.903,247.114 98.509,249.794 104.367 C 255.223 116.230,256.300 128.747,253.167 143.541 C 250.136 157.852,244.775 167.098,233.551 177.378 C 225.321 184.915,224.615 187.041,227.760 194.815 C 243.431 233.555,242.941 267.243,226.594 275.006 C 216.105 279.987,179.706 279.424,171.315 274.150 C 157.173 265.262,157.267 234.368,171.550 196.667 C 175.401 186.502,175.334 186.130,168.426 179.376 C 165.964 176.969,162.882 173.937,161.578 172.637 C 145.537 156.664,140.180 124.425,150.232 104.359 C 152.028 100.775,152.194 99.839,151.135 99.272 C 150.261 98.804,150.608 98.739,147.963 99.867 M57.963 106.091 C 51.296 108.504,49.130 118.936,54.305 123.707 C 61.698 130.521,71.657 125.632,72.478 114.786 L 72.686 112.033 69.276 109.905 C 67.400 108.735,65.754 107.779,65.618 107.780 C 65.414 107.781,61.195 114.325,60.809 115.239 C 60.704 115.489,63.421 117.407,63.881 117.407 C 63.986 117.407,64.545 116.649,65.121 115.723 L 66.170 114.038 67.018 114.725 C 68.991 116.323,66.201 121.481,63.365 121.481 C 56.779 121.481,53.081 112.149,59.377 111.418 C 60.291 111.311,63.020 106.600,62.480 106.060 C 62.048 105.628,59.189 105.647,57.963 106.091 M340.555 115.843 C 336.277 118.231,332.570 120.319,332.318 120.483 C 331.977 120.704,332.214 121.432,333.244 123.326 L 334.630 125.872 338.079 124.009 C 339.976 122.984,341.587 122.205,341.658 122.277 C 342.669 123.301,344.801 127.931,344.386 128.203 C 344.113 128.383,342.597 129.226,341.019 130.077 C 337.673 131.880,337.788 131.542,339.476 134.613 C 340.707 136.852,340.863 136.998,341.606 136.603 C 343.661 135.511,357.581 127.727,357.711 127.597 C 357.792 127.517,357.215 126.293,356.429 124.878 L 355.000 122.306 352.222 123.912 C 348.746 125.922,349.200 126.025,347.433 122.825 C 345.563 119.437,345.413 119.941,348.849 118.078 L 351.772 116.494 350.423 113.994 C 348.754 110.900,349.740 110.715,340.555 115.843 M33.315 155.680 C 33.095 156.528,32.775 157.757,32.603 158.410 L 32.290 159.599 37.440 160.801 C 40.273 161.462,42.465 162.128,42.311 162.281 C 42.158 162.435,39.455 163.531,36.305 164.717 L 30.578 166.873 29.964 169.577 C 29.526 171.507,29.470 172.317,29.768 172.408 C 30.911 172.759,47.646 176.675,47.985 176.671 C 48.444 176.666,49.699 171.774,49.327 171.439 C 49.188 171.314,47.481 170.851,45.534 170.410 C 43.587 169.970,41.340 169.429,40.541 169.208 L 39.089 168.807 45.179 166.495 L 51.269 164.183 51.947 161.490 C 52.320 160.009,52.576 158.756,52.516 158.704 C 52.456 158.652,48.741 157.746,44.259 156.690 C 39.778 155.634,35.572 154.627,34.913 154.453 C 33.739 154.143,33.707 154.168,33.315 155.680 M188.191 161.432 C 185.782 162.107,193.545 167.351,198.179 168.179 C 204.569 169.321,217.961 163.311,213.124 161.472 C 212.065 161.070,189.614 161.034,188.191 161.432 M363.519 164.288 C 360.463 164.983,356.443 165.894,354.585 166.314 L 351.207 167.076 351.847 169.927 C 352.198 171.495,352.635 172.756,352.817 172.730 C 354.574 172.476,370.994 168.738,371.209 168.543 C 371.365 168.402,371.222 167.088,370.891 165.624 C 370.183 162.490,370.871 162.615,363.519 164.288 M208.337 173.711 C 203.130 175.373,198.400 175.541,193.249 174.245 C 188.563 173.066,188.456 169.555,194.612 218.889 C 197.167 239.361,199.257 256.236,199.258 256.389 C 199.261 257.099,200.741 256.600,200.906 255.833 C 201.005 255.375,201.503 253.250,202.011 251.111 C 203.823 243.495,212.235 174.426,211.464 173.497 C 210.927 172.850,211.064 172.840,208.337 173.711 M362.714 186.076 C 354.027 186.552,354.735 186.230,355.045 189.566 L 355.290 192.204 358.108 192.019 C 359.658 191.918,361.968 191.761,363.241 191.672 C 366.308 191.456,366.301 191.467,360.532 195.741 L 355.532 199.444 355.752 202.214 C 355.873 203.738,356.023 205.035,356.085 205.098 C 356.219 205.232,370.850 204.508,373.519 204.235 L 375.370 204.046 375.249 201.282 L 375.127 198.519 370.804 198.722 C 368.427 198.833,366.023 198.996,365.463 199.083 C 363.948 199.318,364.019 199.248,369.660 194.938 C 374.615 191.152,374.865 190.899,374.660 189.874 C 374.541 189.281,374.444 188.067,374.444 187.176 L 374.444 185.556 372.315 185.611 C 371.144 185.642,366.823 185.851,362.714 186.076 M36.411 191.387 L 27.081 194.583 26.841 196.830 C 26.356 201.354,25.622 200.706,36.217 205.101 C 41.368 207.237,45.638 208.922,45.705 208.844 C 45.771 208.767,45.937 207.435,46.072 205.884 L 46.318 203.065 44.640 202.596 L 42.963 202.126 42.967 199.859 C 42.975 195.563,43.206 194.947,44.949 194.580 L 46.481 194.258 46.589 191.203 C 46.720 187.483,47.867 187.463,36.411 191.387 M38.889 198.333 C 38.889 199.454,38.774 200.370,38.633 200.370 C 38.046 200.370,32.222 198.347,32.222 198.143 C 32.222 197.931,37.466 196.397,38.426 196.329 C 38.744 196.307,38.889 196.933,38.889 198.333 M355.041 219.167 C 352.565 231.597,353.998 235.627,361.401 237.059 C 370.044 238.730,372.519 235.975,374.249 222.757 L 374.494 220.884 365.117 219.512 C 359.960 218.758,355.629 218.142,355.492 218.144 C 355.356 218.146,355.153 218.606,355.041 219.167 M32.987 221.335 C 26.649 222.402,27.385 221.853,27.945 225.100 C 28.525 228.457,27.812 228.214,34.074 227.192 C 42.691 225.786,44.074 226.124,44.074 229.639 C 44.074 232.236,43.509 232.534,36.334 233.719 C 28.736 234.973,29.463 234.486,30.022 237.951 C 30.468 240.714,30.499 240.772,31.443 240.580 C 31.973 240.472,34.574 240.035,37.222 239.609 C 46.914 238.051,49.373 235.936,48.708 229.732 C 47.758 220.857,44.898 219.329,32.987 221.335 M364.444 225.423 C 369.379 226.137,369.435 226.168,369.093 227.991 C 368.017 233.729,357.495 232.200,358.360 226.431 C 358.648 224.515,358.428 224.552,364.444 225.423 M351.671 250.199 C 345.672 252.490,343.236 261.913,347.457 266.493 C 354.441 274.069,365.623 269.630,365.677 259.259 C 365.709 252.894,357.879 247.828,351.671 250.199 M36.374 255.236 C 34.875 255.812,34.462 256.134,34.615 256.606 C 34.726 256.945,36.119 260.722,37.713 265.000 C 40.938 273.659,40.694 273.375,43.792 272.062 L 45.176 271.475 44.255 269.027 C 43.748 267.680,43.333 266.365,43.333 266.105 C 43.333 265.828,46.160 264.588,50.118 263.128 L 56.903 260.625 56.020 258.183 C 55.534 256.840,55.004 255.605,54.841 255.439 C 54.678 255.273,51.593 256.232,47.985 257.569 C 44.377 258.906,41.309 260.000,41.167 260.000 C 41.025 260.000,40.443 258.750,39.875 257.222 C 39.307 255.694,38.728 254.453,38.588 254.464 C 38.448 254.474,37.452 254.822,36.374 255.236 M357.622 256.439 C 361.311 258.157,362.182 261.161,359.647 263.426 C 356.895 265.884,350.032 263.234,350.008 259.704 C 349.983 255.888,353.343 254.446,357.622 256.439 M55.741 281.691 C 52.278 286.065,49.496 289.836,49.558 290.070 C 49.621 290.305,50.330 291.604,51.133 292.957 L 52.595 295.417 62.650 293.640 C 68.180 292.663,72.777 291.791,72.866 291.702 C 72.955 291.613,72.388 290.439,71.606 289.092 C 70.118 286.528,69.662 286.337,67.241 287.266 C 66.935 287.384,66.123 286.352,65.028 284.455 L 63.299 281.457 64.391 280.133 L 65.482 278.809 63.947 276.256 C 63.102 274.852,62.327 273.712,62.224 273.722 C 62.121 273.731,59.204 277.318,55.741 281.691 M336.909 278.229 C 336.617 278.694,335.952 279.764,335.432 280.607 L 334.486 282.141 338.904 284.867 C 343.948 287.980,343.935 288.049,338.295 288.111 C 336.441 288.132,333.927 288.252,332.710 288.380 L 330.496 288.611 329.105 290.835 C 327.960 292.667,327.802 293.139,328.209 293.514 C 328.817 294.073,343.025 302.868,343.802 303.166 C 344.268 303.345,347.037 299.617,347.037 298.811 C 347.037 298.720,345.024 297.408,342.563 295.896 L 338.090 293.148 340.619 292.916 C 342.010 292.789,344.921 292.664,347.088 292.639 L 351.028 292.593 352.567 290.139 C 353.413 288.790,354.057 287.645,353.997 287.595 C 353.903 287.516,339.064 278.358,337.887 277.652 C 337.621 277.492,337.225 277.726,336.909 278.229 M61.780 287.057 L 62.563 288.373 59.192 289.196 C 55.025 290.212,55.066 290.271,57.829 287.256 C 60.322 284.535,60.281 284.537,61.780 287.057 M177.123 295.601 C 176.024 295.918,171.601 297.891,158.624 303.853 C 150.572 307.552,145.441 308.939,137.329 309.608 C 132.409 310.014,131.008 310.552,130.411 312.266 C 129.285 315.494,129.850 315.927,135.167 315.919 C 142.005 315.909,147.249 314.473,157.778 309.726 C 181.320 299.113,181.991 298.953,191.499 301.661 C 198.690 303.709,202.397 303.738,209.870 301.802 C 220.841 298.960,226.574 299.864,240.721 306.668 C 253.100 312.622,258.389 314.358,265.237 314.712 C 271.228 315.022,271.930 314.615,270.522 311.648 C 269.753 310.028,269.160 309.850,258.148 307.937 C 253.044 307.050,246.685 304.820,239.278 301.318 C 224.610 294.383,217.935 293.533,207.181 297.228 C 202.475 298.846,200.540 298.804,191.078 296.884 C 182.770 295.197,179.549 294.901,177.123 295.601 M77.509 302.967 C 72.820 304.023,71.793 307.836,74.630 313.663 C 76.488 317.481,76.646 318.358,75.537 318.709 C 73.751 319.277,72.087 316.836,72.861 314.785 C 73.347 313.496,69.749 309.520,68.958 310.472 C 64.521 315.818,73.542 326.252,79.474 322.635 C 82.256 320.938,82.407 318.099,79.981 313.110 C 77.995 309.025,78.107 307.778,80.462 307.778 C 82.663 307.778,84.136 310.947,82.874 312.967 C 82.329 313.840,85.812 317.751,86.664 317.224 C 92.215 313.793,84.283 301.441,77.509 302.967 M313.898 309.516 L 308.488 315.329 310.011 316.831 L 311.534 318.333 315.119 314.550 L 318.704 310.766 320.140 312.037 L 321.576 313.309 319.710 315.451 C 318.684 316.629,317.245 318.168,316.512 318.871 L 315.181 320.150 316.572 321.586 L 317.963 323.022 321.143 319.603 L 324.323 316.184 325.495 317.051 C 327.030 318.186,327.155 317.902,323.309 322.043 L 319.951 325.659 321.347 327.089 C 322.115 327.875,322.775 328.519,322.815 328.519 C 323.063 328.519,333.519 316.931,333.519 316.656 C 333.519 316.254,320.038 303.704,319.606 303.704 C 319.443 303.704,316.874 306.319,313.898 309.516 M97.604 324.108 C 97.072 327.292,97.018 328.368,97.352 329.101 C 97.586 329.614,97.778 330.098,97.778 330.176 C 97.778 330.253,96.903 330.230,95.833 330.123 C 91.012 329.643,88.047 335.157,91.197 338.745 C 93.497 341.364,101.502 347.177,102.041 346.619 C 102.938 345.691,113.318 332.041,113.326 331.781 C 113.333 331.547,109.114 328.148,108.817 328.148 C 108.746 328.148,107.616 329.560,106.305 331.285 C 102.796 335.903,101.846 334.733,103.157 327.407 L 103.720 324.259 102.577 323.286 C 101.948 322.751,100.724 321.804,99.857 321.181 L 98.281 320.049 97.604 324.108 M296.761 326.105 C 288.573 328.617,285.331 337.932,291.717 340.600 C 293.823 341.480,294.321 341.384,301.464 338.708 C 304.338 337.632,304.979 340.241,302.194 341.681 C 301.204 342.193,300.952 342.197,299.988 341.716 C 298.926 341.187,298.847 341.215,296.857 342.854 C 294.457 344.830,294.440 344.893,296.062 345.896 C 300.932 348.906,310.009 342.204,308.526 336.694 C 307.452 332.704,304.304 332.198,297.158 334.867 C 294.599 335.822,293.333 335.368,293.333 333.494 C 293.333 331.546,297.322 329.855,298.519 331.296 C 299.203 332.121,299.491 332.014,301.688 330.118 C 303.551 328.509,303.654 328.337,303.111 327.737 C 301.687 326.164,298.903 325.448,296.761 326.105 M99.944 335.928 C 101.768 337.249,101.743 337.105,100.463 338.914 C 99.210 340.686,99.355 340.689,97.274 338.857 C 93.916 335.901,96.299 333.287,99.944 335.928 M123.129 340.408 C 122.603 341.446,122.225 342.344,122.290 342.402 C 122.355 342.460,124.447 343.527,126.939 344.773 L 131.472 347.038 130.662 348.704 C 129.668 350.751,130.054 350.775,125.240 348.361 L 121.232 346.351 120.414 348.035 C 119.964 348.961,119.645 349.763,119.705 349.817 C 119.766 349.871,121.565 350.787,123.704 351.852 C 128.416 354.199,128.034 353.824,127.295 355.375 C 126.511 357.019,126.655 357.039,121.829 354.618 C 119.582 353.491,117.614 352.650,117.455 352.748 C 117.074 352.984,115.766 355.893,115.961 356.073 C 116.273 356.364,129.635 362.963,129.910 362.963 C 130.262 362.963,138.744 346.023,138.504 345.799 C 138.410 345.711,135.128 344.037,131.209 342.080 L 124.086 338.521 123.129 340.408 M272.130 341.334 C 270.755 342.032,269.630 342.694,269.630 342.806 C 269.630 343.014,273.983 351.455,276.919 356.940 L 278.553 359.992 281.128 358.695 C 282.545 357.982,283.704 357.335,283.704 357.258 C 283.704 357.021,275.133 340.572,274.873 340.310 C 274.739 340.175,273.505 340.636,272.130 341.334 M256.038 348.408 L 253.372 349.308 253.260 351.043 L 253.148 352.778 250.000 353.795 L 246.852 354.813 245.741 353.513 L 244.630 352.214 242.245 352.946 C 240.933 353.349,239.636 353.764,239.363 353.869 C 239.034 353.995,241.062 356.800,245.374 362.185 L 251.880 370.310 254.736 369.366 C 256.307 368.847,257.703 368.319,257.837 368.193 C 258.099 367.946,259.087 347.839,258.847 347.632 C 258.768 347.564,257.504 347.914,256.038 348.408 M159.979 354.565 C 158.605 359.807,158.486 360.079,157.649 359.840 C 151.172 357.994,148.584 358.518,147.005 361.994 C 145.631 365.018,146.290 368.140,148.602 369.564 C 149.782 370.291,160.638 373.596,160.864 373.298 C 161.584 372.347,166.126 354.444,165.647 354.444 C 165.494 354.444,164.247 354.124,162.876 353.732 L 160.384 353.019 159.979 354.565 M198.497 360.648 L 197.222 364.630 192.835 364.815 L 188.448 365.000 191.966 367.534 L 195.484 370.067 194.223 373.810 C 192.514 378.887,192.495 378.870,196.481 375.926 L 200.000 373.327 203.519 375.926 C 207.505 378.870,207.486 378.887,205.777 373.810 L 204.516 370.067 208.034 367.534 L 211.552 365.000 207.165 364.815 L 202.778 364.630 201.503 360.648 C 200.802 358.458,200.126 356.667,200.000 356.667 C 199.874 356.667,199.198 358.458,198.497 360.648 M253.261 362.250 L 253.148 364.154 251.182 361.333 C 249.827 359.389,249.366 358.457,249.700 358.334 C 249.967 358.237,250.852 357.929,251.667 357.650 L 253.148 357.143 253.261 358.744 C 253.322 359.625,253.322 361.203,253.261 362.250 M155.783 363.383 C 157.018 363.694,157.394 363.945,157.236 364.356 C 157.119 364.661,156.840 365.639,156.616 366.529 C 156.392 367.420,156.170 368.148,156.122 368.148 C 153.247 368.148,151.086 364.912,153.045 363.540 C 154.026 362.853,153.743 362.869,155.783 363.383 " stroke="none" fill="#f4f404" fill-rule="evenodd"></path><path id="path1" d="M191.667 19.282 C 49.503 26.443,-31.239 185.055,46.221 305.000 C 112.815 408.120,263.942 417.290,342.267 322.963 C 436.749 209.177,367.978 36.850,221.441 20.197 C 211.460 19.063,201.868 18.768,191.667 19.282 M189.911 30.426 C 191.230 30.835,192.765 32.587,193.147 34.118 C 193.386 35.073,193.349 35.093,190.676 35.491 L 187.963 35.895 187.103 34.800 C 185.738 33.061,182.291 33.522,182.649 35.395 C 182.793 36.149,182.957 36.202,188.330 37.211 C 193.693 38.218,196.041 41.534,194.314 45.666 C 192.111 50.940,181.127 52.051,178.196 47.296 C 176.554 44.634,176.693 44.210,179.353 43.747 C 182.641 43.174,182.748 43.193,183.219 44.441 C 184.052 46.649,187.932 46.845,188.677 44.716 C 189.211 43.192,188.383 42.623,184.494 41.842 C 177.939 40.528,175.630 37.706,177.641 33.469 C 179.085 30.425,185.099 28.934,189.911 30.426 M218.704 30.311 L 225.370 30.938 225.285 32.931 C 225.176 35.467,225.639 35.299,220.186 34.786 C 215.033 34.301,214.832 34.360,214.820 36.341 C 214.815 37.278,214.909 37.320,217.500 37.553 C 218.977 37.686,221.060 37.893,222.130 38.014 L 224.074 38.233 224.068 39.765 C 224.059 42.327,224.014 42.345,219.107 41.840 C 214.158 41.329,214.518 41.214,214.218 43.402 L 213.988 45.078 215.790 45.307 C 216.782 45.433,219.153 45.649,221.060 45.787 L 224.527 46.038 224.272 48.295 C 224.132 49.536,223.988 50.575,223.953 50.605 C 223.765 50.763,207.927 49.134,207.737 48.937 C 207.612 48.809,207.897 44.620,208.370 39.630 C 208.842 34.639,209.235 30.347,209.244 30.093 C 209.264 29.502,210.374 29.527,218.704 30.311 M244.489 35.072 C 247.396 35.880,247.359 35.448,245.180 43.130 C 244.148 46.770,243.435 49.870,243.596 50.020 C 243.757 50.171,245.702 50.804,247.918 51.428 C 250.133 52.053,252.021 52.638,252.113 52.730 C 252.449 53.066,250.994 57.442,250.594 57.298 C 250.369 57.217,246.972 56.259,243.044 55.170 C 238.922 54.026,235.960 53.024,236.039 52.798 C 236.114 52.583,237.307 48.366,238.690 43.426 C 240.430 37.209,241.362 34.444,241.718 34.444 C 242.002 34.444,243.248 34.727,244.489 35.072 M143.329 46.151 C 147.661 56.111,146.783 59.568,139.209 62.375 C 134.632 64.072,131.429 63.375,129.188 60.196 C 127.971 58.469,123.248 47.845,123.509 47.422 C 123.718 47.085,128.861 45.024,129.011 45.218 C 129.076 45.302,130.195 47.870,131.498 50.926 C 134.575 58.142,135.587 59.108,138.492 57.606 C 140.664 56.483,140.535 55.232,137.533 48.292 C 136.177 45.154,135.140 42.514,135.230 42.424 C 135.435 42.219,140.100 40.065,140.419 40.027 C 140.548 40.012,141.857 42.768,143.329 46.151 M272.972 45.005 C 274.393 45.720,275.556 46.389,275.556 46.491 C 275.556 46.593,274.296 49.190,272.758 52.263 C 269.604 58.559,269.373 59.879,271.190 61.229 C 273.911 63.252,275.256 62.138,278.864 54.866 L 281.618 49.318 284.235 50.629 C 285.674 51.349,286.903 51.985,286.966 52.041 C 287.232 52.277,281.110 63.978,280.223 64.929 C 275.378 70.130,263.968 65.426,263.968 58.227 C 263.968 56.521,269.529 43.704,270.269 43.704 C 270.335 43.704,271.551 44.289,272.972 45.005 M110.931 58.683 C 113.244 60.447,113.973 63.576,112.597 65.833 L 111.863 67.037 113.088 67.037 C 114.264 67.037,120.794 69.928,121.237 70.644 C 121.352 70.831,120.226 71.832,118.734 72.869 L 116.022 74.755 112.548 72.945 C 106.640 69.866,105.446 70.568,108.698 75.208 C 109.855 76.860,110.721 78.291,110.622 78.390 C 110.524 78.488,109.404 79.301,108.134 80.195 L 105.824 81.822 104.840 80.448 C 101.361 75.591,94.817 65.940,94.826 65.681 C 94.836 65.399,103.985 59.121,105.741 58.192 C 107.120 57.462,109.644 57.701,110.931 58.683 M217.222 60.151 C 324.572 72.822,380.900 193.314,321.650 283.531 C 260.682 376.363,121.237 367.874,71.367 268.295 C 26.399 178.503,86.718 69.191,186.296 60.017 C 188.639 59.802,191.222 59.559,192.037 59.479 C 195.337 59.154,212.701 59.617,217.222 60.151 M306.736 65.308 C 309.448 67.436,311.958 69.679,312.315 70.293 C 314.478 74.021,311.228 78.503,306.679 78.066 C 305.012 77.905,304.880 77.949,305.202 78.550 C 305.799 79.665,305.051 87.295,304.269 88.077 C 304.180 88.166,302.975 87.352,301.591 86.269 C 300.207 85.186,299.020 84.265,298.954 84.221 C 298.888 84.178,299.127 82.303,299.485 80.054 C 299.999 76.833,300.046 75.765,299.706 75.020 C 299.080 73.647,298.873 73.771,296.342 77.037 C 295.078 78.667,293.926 80.000,293.782 80.000 C 293.258 79.999,289.216 76.611,289.331 76.268 C 289.698 75.164,300.947 61.111,301.342 61.262 C 301.597 61.360,304.025 63.181,306.736 65.308 M105.556 63.231 C 102.612 64.208,101.843 65.629,103.304 67.392 L 104.366 68.672 106.092 67.257 C 108.340 65.416,107.943 62.439,105.556 63.231 M302.265 69.440 L 301.071 71.102 302.830 72.218 C 306.084 74.281,308.740 72.406,306.019 69.966 C 303.327 67.553,303.594 67.590,302.265 69.440 M86.656 81.186 C 94.398 88.580,94.935 91.742,89.395 97.323 C 84.129 102.628,81.180 102.175,73.582 94.894 C 68.192 89.727,68.399 90.273,70.896 87.807 L 72.924 85.805 77.714 90.310 C 83.381 95.641,84.114 95.960,86.103 93.971 C 88.356 91.718,88.146 91.250,82.418 85.735 L 77.411 80.915 79.536 78.790 C 80.704 77.621,81.764 76.707,81.890 76.758 C 82.016 76.810,84.161 78.802,86.656 81.186 M329.031 85.497 C 331.155 87.901,331.448 87.257,326.111 91.919 C 319.863 97.377,319.486 98.095,321.674 100.378 C 323.571 102.358,324.385 102.050,330.025 97.225 C 335.882 92.213,335.038 92.450,337.383 95.157 L 339.284 97.351 334.549 101.481 C 326.584 108.429,323.542 109.011,318.989 104.458 C 312.847 98.316,313.416 94.785,321.719 87.521 C 327.149 82.770,326.724 82.888,329.031 85.497 M62.142 105.869 C 63.061 106.451,60.772 111.481,59.589 111.481 C 57.561 111.481,55.519 114.371,56.125 116.383 C 56.723 118.368,61.000 121.470,63.148 121.476 C 65.893 121.485,69.164 115.953,67.074 114.835 C 66.057 114.290,66.103 114.262,65.030 116.094 L 64.063 117.743 62.414 116.742 C 60.343 115.485,60.314 115.743,63.020 111.419 C 65.705 107.131,65.204 107.256,69.312 109.848 L 72.593 111.918 72.593 114.040 C 72.593 126.602,58.176 131.749,52.194 121.321 C 49.534 116.683,53.380 106.731,58.183 105.824 C 59.725 105.534,61.648 105.555,62.142 105.869 M350.544 114.043 C 351.573 115.873,351.771 116.492,351.404 116.734 C 351.141 116.907,349.799 117.666,348.422 118.419 C 347.045 119.173,345.961 119.882,346.014 119.995 C 346.068 120.107,346.767 121.397,347.568 122.860 L 349.025 125.520 352.067 123.862 L 355.108 122.205 356.459 124.664 C 358.200 127.831,358.809 127.170,349.266 132.486 C 339.933 137.685,340.868 137.547,339.045 133.994 C 337.822 131.612,337.757 131.733,341.296 129.804 C 343.028 128.860,344.444 127.920,344.444 127.715 C 344.444 127.433,342.144 122.981,341.641 122.290 C 341.594 122.226,340.028 123.034,338.161 124.087 C 335.123 125.799,334.719 125.937,334.324 125.396 C 333.591 124.394,331.739 120.729,331.893 120.586 C 332.633 119.898,348.765 111.229,348.955 111.417 C 349.093 111.554,349.808 112.736,350.544 114.043 M43.118 156.297 C 53.965 158.909,52.813 158.232,52.073 161.559 L 51.470 164.269 45.575 166.486 C 42.333 167.705,39.877 168.808,40.118 168.937 C 40.359 169.065,42.597 169.635,45.093 170.203 C 48.591 170.999,49.623 171.369,49.600 171.821 C 49.537 173.060,48.277 176.849,47.943 176.803 C 47.367 176.722,29.454 172.476,29.337 172.392 C 29.278 172.350,29.503 171.111,29.838 169.639 L 30.447 166.963 32.353 166.134 C 33.401 165.678,36.050 164.653,38.239 163.856 C 40.427 163.059,42.218 162.324,42.218 162.222 C 42.219 162.120,40.095 161.551,37.498 160.956 C 34.902 160.362,32.668 159.778,32.533 159.660 C 32.269 159.427,33.389 154.074,33.702 154.074 C 33.806 154.074,38.043 155.074,43.118 156.297 M371.306 167.160 L 371.545 168.753 362.018 170.869 C 356.778 172.033,352.463 172.938,352.429 172.881 C 352.128 172.382,351.147 167.248,351.319 167.076 C 351.442 166.953,355.738 165.919,360.864 164.780 L 370.185 162.708 370.626 164.138 C 370.869 164.924,371.175 166.284,371.306 167.160 M374.579 187.274 C 375.091 191.007,375.251 190.743,370.093 194.674 C 367.495 196.653,365.204 198.429,365.000 198.621 C 364.768 198.841,366.574 198.875,369.851 198.713 L 375.073 198.455 375.323 201.145 C 375.643 204.585,376.466 204.275,365.602 204.806 C 354.830 205.332,355.570 205.550,355.561 201.852 L 355.556 199.444 360.370 195.783 C 363.019 193.770,365.185 192.036,365.185 191.931 C 365.185 191.825,362.957 191.851,360.233 191.988 L 355.281 192.236 355.048 191.072 C 354.920 190.431,354.815 189.114,354.815 188.145 L 354.815 186.383 361.574 186.030 C 365.292 185.835,369.686 185.649,371.339 185.616 L 374.344 185.556 374.579 187.274 M46.667 191.058 L 46.667 194.339 45.093 194.671 L 43.519 195.002 43.248 198.149 C 42.916 202.006,42.906 201.977,44.776 202.537 L 46.296 202.993 46.259 205.293 C 46.188 209.712,47.040 209.717,36.206 205.238 L 26.672 201.296 26.669 197.945 L 26.667 194.594 36.574 191.207 C 42.023 189.345,46.523 187.811,46.574 187.799 C 46.625 187.787,46.667 189.254,46.667 191.058 M35.463 197.160 C 31.949 198.124,31.946 198.165,35.278 199.236 C 36.755 199.710,38.171 200.177,38.426 200.274 C 38.762 200.402,38.889 199.881,38.889 198.373 C 38.889 197.231,38.764 196.313,38.611 196.334 C 38.458 196.355,37.042 196.726,35.463 197.160 M365.422 219.456 C 370.261 220.175,374.298 220.841,374.392 220.935 C 374.601 221.144,373.439 229.579,372.908 231.715 C 370.651 240.785,353.716 238.633,353.701 229.273 C 353.699 227.701,354.694 219.633,355.016 218.611 C 355.220 217.963,355.567 217.991,365.422 219.456 M44.615 221.249 C 50.258 224.281,50.312 235.436,44.695 237.967 C 42.933 238.761,30.895 241.018,30.504 240.628 C 29.727 239.850,29.424 234.790,30.145 234.631 C 30.574 234.536,33.486 234.051,36.615 233.551 C 43.459 232.460,44.263 231.992,43.961 229.274 C 43.601 226.042,42.883 225.884,34.594 227.222 C 31.438 227.731,28.727 228.148,28.569 228.148 C 28.225 228.148,27.309 222.567,27.605 222.272 C 28.045 221.832,40.269 220.093,41.667 220.271 C 42.481 220.375,43.808 220.815,44.615 221.249 M358.519 227.010 C 358.519 232.260,367.584 233.360,368.867 228.265 C 369.402 226.143,369.746 226.354,364.381 225.527 C 358.027 224.548,358.519 224.424,358.519 227.010 M360.072 250.854 C 366.894 254.192,367.873 262.729,362.048 268.098 C 356.177 273.510,345.185 268.768,345.185 260.823 C 345.185 252.171,352.606 247.201,360.072 250.854 M40.010 257.226 C 41.139 260.294,40.316 260.292,48.493 257.253 L 54.860 254.886 55.239 255.869 C 56.871 260.100,56.997 260.537,56.649 260.751 C 56.444 260.878,53.405 262.036,49.897 263.325 C 46.389 264.613,43.453 265.721,43.373 265.788 C 43.293 265.854,43.688 267.170,44.250 268.713 C 44.813 270.255,45.212 271.570,45.137 271.634 C 45.061 271.699,44.037 272.107,42.861 272.541 L 40.721 273.330 40.327 272.313 C 37.591 265.260,34.467 256.402,34.596 256.065 C 34.785 255.572,37.691 254.459,38.510 254.566 C 38.824 254.606,39.465 255.744,40.010 257.226 M351.512 256.532 C 348.784 258.969,349.892 262.173,353.997 263.716 C 357.564 265.057,359.973 264.275,360.731 261.531 C 361.827 257.560,354.691 253.691,351.512 256.532 M64.111 276.316 L 65.663 278.928 64.479 280.150 L 63.294 281.372 65.073 284.318 C 66.703 287.017,66.929 287.241,67.778 287.002 C 69.924 286.396,70.211 286.558,71.765 289.241 L 73.256 291.815 71.350 292.193 C 70.302 292.401,66.028 293.162,61.852 293.884 C 57.676 294.607,53.888 295.281,53.434 295.382 C 52.579 295.572,52.194 295.111,49.996 291.269 L 49.133 289.761 55.580 281.732 C 59.126 277.317,62.146 273.704,62.293 273.704 C 62.440 273.704,63.258 274.879,64.111 276.316 M345.799 282.413 C 355.165 288.208,354.434 287.377,352.635 290.185 L 351.211 292.407 344.772 292.778 L 338.333 293.148 342.685 295.858 C 347.671 298.964,347.459 298.562,345.640 301.439 L 344.243 303.648 335.848 298.463 L 327.452 293.278 328.771 291.176 C 330.650 288.182,330.710 288.153,335.163 288.112 C 337.314 288.091,339.991 287.966,341.111 287.834 L 343.148 287.593 339.259 285.219 C 333.948 281.977,334.226 282.424,335.842 279.726 C 337.548 276.880,336.322 276.550,345.799 282.413 M57.762 287.455 C 56.324 289.072,55.694 290.011,56.134 289.878 C 56.529 289.759,58.019 289.380,59.444 289.035 C 62.663 288.257,62.491 288.487,61.326 286.498 C 60.120 284.440,60.542 284.327,57.762 287.455 M80.830 302.982 C 86.244 304.485,90.118 312.450,87.379 316.447 L 86.482 317.757 84.373 315.670 C 82.407 313.725,82.301 313.532,82.799 312.820 C 84.023 311.073,82.461 307.778,80.407 307.778 C 78.436 307.778,78.303 309.374,79.983 312.874 C 82.408 317.925,82.355 320.529,79.785 322.550 C 74.768 326.497,65.296 317.557,68.181 311.598 C 69.146 309.604,69.070 309.595,71.438 311.993 C 73.154 313.730,73.354 314.084,73.000 314.747 C 72.070 316.484,74.002 319.350,75.545 318.524 C 76.563 317.980,76.532 317.822,74.666 314.068 C 70.935 306.559,73.982 301.080,80.830 302.982 M326.704 309.850 C 330.554 313.434,333.704 316.521,333.704 316.711 C 333.704 317.088,323.282 328.333,322.932 328.333 C 322.616 328.333,320.000 325.991,320.000 325.708 C 320.000 325.575,321.494 323.846,323.321 321.865 L 326.642 318.263 325.574 317.240 L 324.506 316.217 322.105 318.762 C 320.785 320.162,319.377 321.712,318.976 322.206 L 318.249 323.105 316.717 321.892 C 314.782 320.359,314.657 320.757,318.315 316.813 L 321.442 313.441 320.241 312.276 C 318.629 310.714,318.491 310.808,312.746 317.337 L 311.667 318.564 310.093 317.216 C 309.227 316.475,308.519 315.702,308.519 315.500 C 308.519 315.165,319.270 303.335,319.575 303.334 C 319.646 303.334,322.855 306.266,326.704 309.850 M101.296 322.168 C 102.519 323.084,103.583 323.884,103.663 323.944 C 103.742 324.004,103.510 325.899,103.147 328.153 C 102.070 334.849,102.858 335.585,106.319 331.111 C 109.027 327.610,108.436 327.756,111.323 329.876 L 113.677 331.605 112.672 332.960 C 112.119 333.706,109.426 337.246,106.687 340.827 L 101.707 347.340 99.465 345.639 C 89.319 337.948,88.368 336.605,90.449 332.902 C 91.663 330.743,93.290 329.874,95.742 330.077 C 97.556 330.228,97.704 330.184,97.386 329.590 C 96.661 328.235,97.815 319.764,98.657 320.257 C 98.886 320.391,100.074 321.251,101.296 322.168 M300.254 325.947 C 304.018 327.362,304.266 328.214,301.553 330.413 L 299.444 332.122 298.433 331.364 C 296.373 329.821,292.637 332.066,293.631 334.249 C 294.196 335.488,295.615 335.481,298.599 334.225 C 302.919 332.407,306.202 332.700,307.921 335.056 C 312.261 341.005,299.614 350.820,294.928 345.140 C 294.239 344.304,298.547 340.902,299.588 341.459 C 301.373 342.415,303.881 341.269,303.645 339.606 C 303.461 338.305,302.551 338.312,299.357 339.642 C 293.168 342.219,288.907 340.832,288.263 336.030 C 287.570 330.858,295.524 324.170,300.254 325.947 M96.093 335.716 C 95.354 336.845,95.722 337.631,97.737 339.227 L 99.191 340.378 100.336 338.932 C 101.781 337.108,101.804 337.225,99.742 335.918 C 97.632 334.579,96.866 334.537,96.093 335.716 M131.578 342.079 C 135.497 344.037,138.755 345.685,138.818 345.742 C 138.914 345.829,130.488 362.927,130.184 363.263 C 130.095 363.360,115.960 356.412,115.623 356.106 C 115.559 356.048,115.936 355.150,116.463 354.111 L 117.420 352.223 121.897 354.467 C 124.360 355.702,126.419 356.660,126.474 356.597 C 126.528 356.533,126.846 355.943,127.181 355.284 L 127.790 354.087 123.710 352.040 C 119.247 349.802,119.302 349.872,120.378 347.763 C 121.292 345.972,120.720 345.908,125.564 348.338 L 129.635 350.379 130.443 348.716 C 130.887 347.802,131.178 346.985,131.088 346.902 C 130.999 346.819,129.009 345.797,126.667 344.630 C 124.324 343.463,122.337 342.443,122.252 342.364 C 122.011 342.141,123.790 338.519,124.141 338.519 C 124.312 338.519,127.659 340.121,131.578 342.079 M279.352 348.473 C 281.745 353.128,283.704 357.094,283.704 357.286 C 283.704 357.669,278.625 360.235,278.380 359.976 C 277.942 359.512,269.815 343.447,269.815 343.045 C 269.815 342.596,273.846 340.070,274.630 340.029 C 274.833 340.018,276.958 343.818,279.352 348.473 M258.643 356.759 C 258.406 361.903,258.197 366.618,258.180 367.238 C 258.149 368.320,258.020 368.408,254.983 369.397 L 251.818 370.427 251.135 369.566 C 250.760 369.092,247.851 365.454,244.671 361.481 C 241.492 357.509,238.890 354.159,238.890 354.035 C 238.889 353.809,243.945 352.215,244.630 352.226 C 244.833 352.229,245.366 352.797,245.814 353.489 L 246.628 354.746 249.888 353.733 L 253.148 352.721 253.090 351.010 L 253.032 349.298 255.682 348.382 C 257.140 347.878,258.500 347.453,258.704 347.437 C 258.949 347.417,258.928 350.568,258.643 356.759 M163.813 353.891 C 165.238 354.272,166.268 354.738,166.188 354.967 C 166.110 355.189,164.915 359.412,163.532 364.352 C 161.755 370.702,160.864 373.333,160.491 373.333 C 158.181 373.333,149.026 370.118,147.674 368.833 L 146.211 367.441 146.355 364.883 C 146.658 359.522,149.803 357.627,155.790 359.199 L 158.381 359.879 159.244 356.699 C 160.250 352.994,160.308 352.863,160.871 353.066 C 161.105 353.150,162.429 353.522,163.813 353.891 M201.500 360.463 L 202.786 364.630 207.215 364.815 L 211.644 365.000 208.230 367.495 C 206.351 368.867,204.816 370.117,204.817 370.273 C 204.818 370.428,205.383 372.347,206.071 374.537 C 206.760 376.727,207.238 378.519,207.132 378.519 C 207.027 378.519,205.460 377.435,203.649 376.111 C 201.838 374.787,200.196 373.704,200.000 373.704 C 199.804 373.704,198.162 374.787,196.351 376.111 C 194.540 377.435,192.973 378.519,192.868 378.519 C 192.762 378.519,193.240 376.727,193.929 374.537 C 194.617 372.347,195.182 370.428,195.183 370.273 C 195.184 370.117,193.649 368.867,191.770 367.495 L 188.356 365.000 192.785 364.815 L 197.214 364.630 198.500 360.463 C 199.207 358.171,199.882 356.296,200.000 356.296 C 200.118 356.296,200.793 358.171,201.500 360.463 M250.848 358.018 L 249.289 358.570 251.194 361.230 C 252.242 362.692,253.152 363.958,253.217 364.043 C 253.281 364.128,253.333 362.670,253.333 360.802 C 253.333 357.052,253.392 357.117,250.848 358.018 M152.629 364.006 C 151.671 365.797,152.565 367.124,155.066 367.624 C 156.169 367.845,157.717 364.631,156.902 363.815 C 156.213 363.127,153.023 363.269,152.629 364.006 " stroke="none" fill="#151d04" fill-rule="evenodd"></path><path id="path2" d="M191.481 14.295 C 88.060 21.340,11.324 102.096,11.324 203.889 C 11.324 338.831,147.564 430.324,272.921 379.566 C 397.265 329.217,430.538 166.719,336.144 70.797 C 298.288 32.329,243.111 10.778,191.481 14.295 M209.219 19.262 C 326.847 25.203,408.846 135.939,379.940 249.815 C 363.465 314.718,311.755 366.428,246.852 382.903 C 137.871 410.566,29.994 336.120,17.237 224.444 C 5.202 119.099,85.521 24.628,191.667 19.282 C 199.907 18.867,201.369 18.865,209.219 19.262 M88.889 83.449 C 88.889 83.513,89.431 84.055,90.093 84.653 L 91.296 85.741 90.208 84.537 C 89.194 83.415,88.889 83.163,88.889 83.449 M199.506 103.210 C 198.773 103.943,199.318 109.643,200.581 114.444 C 205.318 132.452,205.654 134.437,204.844 139.624 C 204.232 143.542,202.978 144.740,200.614 143.663 C 198.830 142.850,198.574 141.072,199.291 134.480 C 199.823 129.589,199.324 126.309,197.492 122.651 C 194.488 116.651,192.116 116.387,189.350 121.743 C 179.631 140.564,185.636 159.962,199.207 153.582 C 201.792 152.366,202.467 152.304,209.305 152.653 C 214.906 152.938,217.494 148.720,217.515 139.276 C 217.532 130.969,215.268 125.128,207.047 112.272 C 201.674 103.872,200.389 102.327,199.506 103.210 " stroke="none" fill="#c42526" fill-rule="evenodd"></path><path id="path3" d="M192.037 59.479 C 191.222 59.559,188.639 59.802,186.296 60.017 C 99.191 68.042,39.212 153.791,60.737 239.524 C 84.744 335.142,196.595 378.951,279.630 325.258 C 373.338 264.664,365.346 124.417,265.332 74.330 C 243.782 63.538,213.374 57.377,192.037 59.479 M151.407 99.333 C 152.194 100.120,151.893 101.304,149.806 105.644 C 144.036 117.644,143.767 134.667,149.087 151.111 C 152.525 161.739,155.645 166.496,165.602 176.296 C 175.710 186.245,175.750 186.358,172.285 195.185 C 156.209 236.139,157.260 269.417,174.831 275.760 C 184.291 279.175,216.363 279.033,225.233 275.537 C 242.769 268.625,243.830 236.610,227.884 195.556 C 224.427 186.655,224.671 185.940,234.462 176.296 C 245.868 165.062,250.223 157.262,253.145 142.827 C 256.145 128.013,255.073 116.346,249.603 104.270 C 246.906 98.317,247.681 97.534,253.462 100.371 C 264.958 106.013,273.318 118.077,274.847 131.232 C 275.866 140.001,273.123 154.357,268.852 162.606 C 268.058 164.141,267.407 165.620,267.407 165.892 C 267.407 166.165,266.320 168.404,264.992 170.868 C 262.372 175.726,262.249 176.504,264.166 176.104 C 274.956 173.855,283.413 146.767,280.985 122.227 L 280.675 119.085 281.506 119.820 C 287.418 125.052,292.021 136.388,293.001 148.129 C 294.471 165.732,289.740 179.042,277.700 191.180 C 272.996 195.923,273.161 196.775,278.313 194.328 C 291.654 187.993,297.428 177.863,300.398 155.587 C 301.309 148.755,302.870 148.855,305.678 155.926 C 316.121 182.222,307.340 203.215,281.667 213.331 C 274.267 216.247,273.473 216.806,274.823 218.157 C 275.807 219.141,279.229 219.136,284.102 218.142 C 291.902 216.553,296.042 214.530,304.343 208.250 C 311.303 202.985,310.982 203.101,311.312 205.741 C 313.234 221.121,294.619 236.452,271.668 238.392 C 268.203 238.685,268.483 239.112,272.632 239.863 C 277.577 240.759,283.015 240.151,289.630 237.962 C 301.764 233.948,302.285 233.819,303.102 234.637 C 303.955 235.489,303.874 235.866,302.348 238.153 C 295.129 248.970,274.956 259.066,262.778 257.956 C 259.062 257.618,257.693 258.185,260.208 259.020 C 268.836 261.886,276.403 261.532,287.126 257.759 C 293.014 255.688,293.088 255.692,291.836 258.014 C 287.459 266.132,273.654 271.965,255.926 273.187 L 252.037 273.455 253.691 273.949 C 254.601 274.221,257.768 274.942,260.728 275.551 C 263.689 276.160,267.694 277.053,269.630 277.535 L 273.148 278.412 270.926 279.434 C 263.902 282.665,253.818 283.836,242.222 282.766 L 239.815 282.544 241.296 283.510 C 242.715 284.435,245.450 285.812,251.481 288.637 C 253.009 289.352,256.081 290.381,258.308 290.922 C 264.792 292.498,267.521 294.406,269.797 298.955 C 272.213 303.783,271.641 305.926,267.937 305.926 C 260.114 305.926,249.948 302.322,238.724 295.568 C 225.909 287.857,217.216 286.611,205.007 290.738 C 200.873 292.136,199.080 292.140,195.301 290.761 C 184.044 286.653,172.849 288.235,161.102 295.594 C 150.876 302.000,142.267 305.175,133.438 305.796 C 128.069 306.174,127.568 304.598,130.931 297.916 C 133.272 293.265,133.257 293.276,140.910 291.105 C 144.555 290.072,148.466 288.750,149.602 288.168 C 150.737 287.587,153.352 286.283,155.411 285.270 C 159.632 283.196,160.612 282.330,158.298 282.721 C 149.440 284.217,128.214 281.431,125.799 278.456 L 125.098 277.593 129.308 277.341 C 131.696 277.199,134.721 276.753,136.296 276.311 C 137.824 275.882,140.142 275.367,141.448 275.166 C 142.754 274.965,144.754 274.519,145.893 274.174 L 147.963 273.548 143.148 273.113 C 134.303 272.314,124.834 270.283,120.240 268.200 C 114.270 265.493,108.755 260.856,108.964 258.720 C 109.121 257.109,109.866 257.128,115.708 258.892 C 123.700 261.306,130.385 261.529,137.359 259.616 C 141.709 258.422,141.638 258.262,136.634 257.962 C 120.049 256.969,102.972 248.242,96.882 237.648 C 94.213 233.005,94.196 233.007,106.079 236.667 C 117.151 240.078,120.139 240.594,125.236 239.974 C 130.532 239.330,130.538 239.136,125.296 238.181 C 101.682 233.877,88.038 222.121,88.588 206.553 L 88.704 203.291 94.313 207.540 C 105.011 215.643,110.834 218.089,120.982 218.746 C 126.687 219.115,128.460 216.989,123.671 215.522 C 102.200 208.943,90.751 196.064,90.117 177.778 C 89.830 169.485,91.815 159.830,95.096 153.570 C 97.393 149.186,98.311 149.987,99.484 157.401 C 101.068 167.411,102.978 175.259,104.618 178.495 C 108.603 186.360,118.772 194.779,125.122 195.472 L 126.852 195.660 126.111 194.813 C 125.704 194.347,124.704 193.480,123.889 192.886 C 111.349 183.751,103.932 162.186,107.163 144.259 C 109.170 133.123,113.205 123.474,116.166 122.731 C 117.945 122.284,118.042 122.723,118.250 132.137 C 118.756 155.048,126.323 173.998,135.665 175.751 C 137.612 176.116,137.506 175.571,134.469 169.627 C 120.795 142.857,121.766 121.658,137.342 106.965 C 142.771 101.843,149.997 97.923,151.407 99.333 M201.732 104.352 C 204.691 108.035,211.580 119.298,214.069 124.520 C 220.409 137.827,218.144 153.000,209.861 152.712 C 208.817 152.676,206.546 152.592,204.815 152.527 C 201.867 152.415,201.490 152.490,198.898 153.704 C 185.818 159.829,179.806 140.677,189.038 122.295 C 192.062 116.274,194.312 116.366,197.494 122.643 C 199.417 126.438,199.780 129.155,199.211 135.518 C 198.633 141.988,198.977 143.340,201.354 143.937 C 206.274 145.171,206.424 136.390,201.775 119.259 C 198.293 106.427,198.275 100.047,201.732 104.352 M213.241 161.325 C 215.418 161.770,213.940 164.210,210.561 165.750 C 201.440 169.907,195.442 169.378,189.324 163.877 C 186.548 161.381,186.691 161.161,191.204 161.008 C 195.785 160.852,212.071 161.087,213.241 161.325 M211.771 174.259 C 211.875 175.373,204.616 236.812,203.529 244.019 C 203.033 247.311,202.462 250.053,201.169 255.370 C 200.960 256.228,200.692 256.481,199.994 256.481 C 199.116 256.481,199.075 256.358,198.601 252.222 C 198.332 249.880,196.204 232.615,193.871 213.856 C 191.538 195.098,189.630 178.389,189.630 176.727 L 189.630 173.704 190.902 173.704 C 191.602 173.704,192.582 173.859,193.080 174.048 C 196.562 175.372,203.090 175.222,207.701 173.713 C 210.689 172.735,211.640 172.863,211.771 174.259 M225.438 295.760 C 228.928 296.543,232.254 297.823,238.148 300.649 C 247.436 305.102,252.972 306.980,260.370 308.188 C 268.909 309.581,269.708 309.842,270.580 311.530 C 274.031 318.202,259.621 315.889,240.370 306.682 C 226.195 299.901,221.168 299.101,210.370 301.905 C 203.401 303.714,198.137 303.660,190.791 301.702 C 181.803 299.307,179.667 299.780,161.667 308.158 C 143.564 316.583,130.000 319.063,130.000 313.948 C 130.000 310.775,131.517 309.876,137.593 309.447 C 145.802 308.868,151.393 307.131,163.995 301.242 C 179.137 294.167,178.958 294.199,190.068 296.531 C 200.939 298.813,201.671 298.820,208.325 296.688 C 214.210 294.803,219.819 294.499,225.438 295.760 " stroke="none" fill="#048bcb" fill-rule="evenodd"></path><path id="path4" d="M74.444 95.671 C 74.444 95.735,74.986 96.277,75.648 96.875 L 76.852 97.963 75.764 96.759 C 74.750 95.637,74.444 95.385,74.444 95.671 M314.901 97.037 C 314.901 97.750,314.977 98.042,315.070 97.685 C 315.163 97.329,315.163 96.745,315.070 96.389 C 314.977 96.032,314.901 96.324,314.901 97.037 M137.940 106.389 L 136.852 107.593 138.056 106.505 C 139.178 105.491,139.430 105.185,139.143 105.185 C 139.080 105.185,138.538 105.727,137.940 106.389 M324.167 107.292 C 324.523 107.386,325.106 107.386,325.463 107.292 C 325.819 107.199,325.528 107.123,324.815 107.123 C 324.102 107.123,323.810 107.199,324.167 107.292 M145.271 123.704 C 145.271 124.417,145.347 124.708,145.440 124.352 C 145.534 123.995,145.534 123.412,145.440 123.056 C 145.347 122.699,145.271 122.991,145.271 123.704 M254.545 124.444 C 254.545 125.361,254.618 125.736,254.706 125.278 C 254.794 124.819,254.794 124.069,254.706 123.611 C 254.618 123.153,254.545 123.528,254.545 124.444 M117.915 130.370 C 117.915 132.509,117.976 133.384,118.051 132.315 C 118.126 131.245,118.126 129.495,118.051 128.426 C 117.976 127.356,117.915 128.231,117.915 130.370 M254.530 132.222 C 254.530 132.935,254.607 133.227,254.700 132.870 C 254.793 132.514,254.793 131.931,254.700 131.574 C 254.607 131.218,254.530 131.509,254.530 132.222 M124.908 137.963 C 124.912 138.778,124.988 139.068,125.077 138.607 C 125.165 138.146,125.162 137.479,125.069 137.125 C 124.977 136.771,124.904 137.148,124.908 137.963 M274.901 138.519 C 274.901 139.231,274.977 139.523,275.070 139.167 C 275.163 138.810,275.163 138.227,275.070 137.870 C 274.977 137.514,274.901 137.806,274.901 138.519 M293.096 153.704 C 293.096 155.639,293.159 156.431,293.235 155.463 C 293.311 154.495,293.311 152.912,293.235 151.944 C 293.159 150.977,293.096 151.769,293.096 153.704 M196.586 161.014 C 197.663 161.089,199.329 161.088,200.290 161.012 C 201.251 160.936,200.370 160.875,198.333 160.876 C 196.296 160.877,195.510 160.939,196.586 161.014 M188.704 163.333 C 189.499 164.148,190.234 164.815,190.336 164.815 C 190.437 164.815,189.870 164.148,189.074 163.333 C 188.278 162.519,187.544 161.852,187.442 161.852 C 187.340 161.852,187.908 162.519,188.704 163.333 M237.765 173.241 L 235.741 175.370 237.870 173.346 C 239.042 172.233,240.000 171.274,240.000 171.216 C 240.000 170.941,239.646 171.262,237.765 173.241 M161.836 173.056 C 162.745 174.023,163.536 174.815,163.596 174.815 C 163.874 174.815,163.580 174.482,161.944 172.947 L 160.185 171.296 161.836 173.056 M129.259 171.968 C 129.259 172.031,129.801 172.573,130.463 173.171 L 131.667 174.259 130.579 173.056 C 129.565 171.934,129.259 171.682,129.259 171.968 M232.014 178.611 L 230.926 179.815 232.130 178.727 C 232.792 178.129,233.333 177.587,233.333 177.523 C 233.333 177.237,233.028 177.489,232.014 178.611 M170.725 181.574 C 171.633 182.542,172.425 183.333,172.485 183.333 C 172.763 183.333,172.469 183.001,170.833 181.466 L 169.074 179.815 170.725 181.574 M277.395 191.389 L 275.370 193.519 277.500 191.494 C 278.671 190.381,279.630 189.422,279.630 189.365 C 279.630 189.090,279.275 189.410,277.395 191.389 M43.064 198.148 C 43.064 199.065,43.136 199.440,43.224 198.981 C 43.313 198.523,43.313 197.773,43.224 197.315 C 43.136 196.856,43.064 197.231,43.064 198.148 M299.060 202.685 L 297.222 204.630 299.167 202.792 C 300.973 201.084,301.281 200.741,301.005 200.741 C 300.946 200.741,300.071 201.616,299.060 202.685 M46.019 206.481 C 46.023 207.296,46.099 207.586,46.188 207.125 C 46.276 206.665,46.273 205.998,46.180 205.644 C 46.088 205.290,46.015 205.667,46.019 206.481 M121.393 219.151 C 121.854 219.239,122.521 219.236,122.875 219.143 C 123.229 219.051,122.852 218.978,122.037 218.982 C 121.222 218.986,120.932 219.062,121.393 219.151 M277.319 219.151 C 277.780 219.239,278.447 219.236,278.801 219.143 C 279.155 219.051,278.778 218.978,277.963 218.982 C 277.148 218.986,276.858 219.062,277.319 219.151 M137.319 258.040 C 137.780 258.128,138.447 258.125,138.801 258.032 C 139.155 257.940,138.778 257.867,137.963 257.871 C 137.148 257.875,136.858 257.951,137.319 258.040 M263.796 258.043 C 264.356 258.128,265.273 258.128,265.833 258.043 C 266.394 257.958,265.935 257.889,264.815 257.889 C 263.694 257.889,263.236 257.958,263.796 258.043 M123.611 261.002 C 124.069 261.090,124.819 261.090,125.278 261.002 C 125.736 260.914,125.361 260.842,124.444 260.842 C 123.528 260.842,123.153 260.914,123.611 261.002 M128.981 260.996 C 129.338 261.089,129.921 261.089,130.278 260.996 C 130.634 260.903,130.343 260.827,129.630 260.827 C 128.917 260.827,128.625 260.903,128.981 260.996 M270.282 261.003 C 270.743 261.091,271.409 261.088,271.764 260.995 C 272.118 260.903,271.741 260.830,270.926 260.834 C 270.111 260.838,269.821 260.914,270.282 261.003 M274.352 261.002 C 274.810 261.090,275.560 261.090,276.019 261.002 C 276.477 260.914,276.102 260.842,275.185 260.842 C 274.269 260.842,273.894 260.914,274.352 261.002 M126.210 277.676 C 126.876 277.758,127.876 277.757,128.433 277.672 C 128.989 277.588,128.444 277.520,127.222 277.522 C 126.000 277.524,125.545 277.593,126.210 277.676 M209.352 278.033 C 209.708 278.126,210.292 278.126,210.648 278.033 C 211.005 277.940,210.713 277.864,210.000 277.864 C 209.287 277.864,208.995 277.940,209.352 278.033 M148.060 283.225 C 148.521 283.314,149.187 283.310,149.541 283.217 C 149.895 283.125,149.519 283.052,148.704 283.056 C 147.889 283.060,147.599 283.136,148.060 283.225 M340.093 288.033 C 340.449 288.126,341.032 288.126,341.389 288.033 C 341.745 287.940,341.454 287.864,340.741 287.864 C 340.028 287.864,339.736 287.940,340.093 288.033 M331.574 288.403 C 331.931 288.497,332.514 288.497,332.870 288.403 C 333.227 288.310,332.935 288.234,332.222 288.234 C 331.509 288.234,331.218 288.310,331.574 288.403 M343.056 292.848 C 343.412 292.941,343.995 292.941,344.352 292.848 C 344.708 292.755,344.417 292.679,343.704 292.679 C 342.991 292.679,342.699 292.755,343.056 292.848 M267.037 295.370 C 267.728 296.083,268.377 296.667,268.479 296.667 C 268.580 296.667,268.098 296.083,267.407 295.370 C 266.716 294.657,266.068 294.074,265.966 294.074 C 265.864 294.074,266.346 294.657,267.037 295.370 M217.685 295.076 C 218.144 295.164,218.894 295.164,219.352 295.076 C 219.810 294.988,219.435 294.916,218.519 294.916 C 217.602 294.916,217.227 294.988,217.685 295.076 M182.504 300.262 C 182.965 300.351,183.632 300.347,183.986 300.254 C 184.340 300.162,183.963 300.089,183.148 300.093 C 182.333 300.098,182.044 300.173,182.504 300.262 M266.764 315.081 C 267.327 315.166,268.161 315.163,268.616 315.076 C 269.072 314.988,268.611 314.918,267.593 314.921 C 266.574 314.924,266.201 314.995,266.764 315.081 M133.067 316.199 C 134.040 316.275,135.540 316.274,136.400 316.197 C 137.260 316.119,136.463 316.056,134.630 316.057 C 132.796 316.059,132.093 316.122,133.067 316.199 M258.604 355.185 C 258.604 355.898,258.681 356.190,258.774 355.833 C 258.867 355.477,258.867 354.894,258.774 354.537 C 258.681 354.181,258.604 354.472,258.604 355.185 M258.234 363.333 C 258.234 364.046,258.310 364.338,258.403 363.981 C 258.497 363.625,258.497 363.042,258.403 362.685 C 258.310 362.329,258.234 362.620,258.234 363.333 " stroke="none" fill="#7cc464" fill-rule="evenodd"></path></g></svg>